<svg width="30" height="30" viewBox="0 0 30 30" fill="none" xmlns="http://www.w3.org/2000/svg">
<path d="M15 1.19995C7.39084 1.19995 1.20004 7.39075 1.20004 15C1.20004 17.3759 1.81384 19.7124 2.97784 21.774L1.22224 28.0379C1.16464 28.2437 1.22044 28.4645 1.36924 28.6175C1.48384 28.7357 1.63984 28.7999 1.80004 28.7999C1.84804 28.7999 1.89664 28.7939 1.94404 28.7826L8.48164 27.1631C10.4778 28.2347 12.726 28.7999 15 28.7999C22.6092 28.7999 28.8 22.6091 28.8 15C28.8 7.39075 22.6092 1.19995 15 1.19995ZM21.942 19.8696C21.6468 20.6868 20.2308 21.4326 19.5504 21.5328C18.9396 21.6222 18.1668 21.6606 17.3184 21.3942C16.8042 21.2322 16.1442 21.0174 15.2988 20.6568C11.745 19.1412 9.42424 15.6078 9.24664 15.3744C9.06964 15.141 7.80004 13.4778 7.80004 11.7564C7.80004 10.035 8.71504 9.18835 9.04024 8.83795C9.36544 8.48755 9.74884 8.39995 9.98524 8.39995C10.2216 8.39995 10.4574 8.40295 10.6644 8.41255C10.8822 8.42335 11.1744 8.33035 11.4618 9.01315C11.757 9.71395 12.4656 11.4354 12.5532 11.6111C12.642 11.7864 12.7008 11.991 12.5832 12.2244C12.4656 12.4578 12.4068 12.6036 12.2292 12.8082C12.0516 13.0128 11.8572 13.2642 11.6976 13.4214C11.52 13.596 11.3358 13.785 11.5422 14.1354C11.7486 14.4858 12.4596 15.6312 13.5132 16.5588C14.8662 17.7503 16.008 18.12 16.362 18.2952C16.716 18.4704 16.923 18.441 17.1294 18.2076C17.3358 17.9736 18.015 17.1858 18.2508 16.8359C18.4866 16.4861 18.723 16.5437 19.0482 16.6608C19.3734 16.7772 21.1152 17.6231 21.4692 17.7983C21.8232 17.9736 22.0596 18.0611 22.1484 18.2069C22.2372 18.3521 22.2372 19.0529 21.942 19.8696Z" fill="white"/>
</svg>
