<svg width="32" height="32" viewBox="0 0 32 32" fill="none" xmlns="http://www.w3.org/2000/svg">
<path d="M16 2.66675C12.4637 2.66675 9.07236 4.07151 6.57187 6.57199C4.07138 9.07247 2.66663 12.4639 2.66663 16.0001C2.66663 19.5363 4.07138 22.9277 6.57187 25.4282C9.07236 27.9287 12.4637 29.3334 16 29.3334C19.5362 29.3334 22.9276 27.9287 25.4281 25.4282C27.9285 22.9277 29.3333 19.5363 29.3333 16.0001C29.3333 12.4639 27.9285 9.07247 25.4281 6.57199C22.9276 4.07151 19.5362 2.66675 16 2.66675Z" fill="white"/>
<path d="M22.6333 9.99992L20.136 22.7506C20.136 22.7506 20.0286 23.3333 19.306 23.3333C18.922 23.3333 18.724 23.1506 18.724 23.1506L13.3146 18.6619L10.668 17.3279L7.27129 16.4246C7.27129 16.4246 6.66663 16.2499 6.66663 15.7499C6.66663 15.3333 7.28863 15.1346 7.28863 15.1346L21.4993 9.48925C21.4986 9.48859 21.9333 9.33259 22.25 9.33325C22.4446 9.33325 22.6666 9.41659 22.6666 9.66659C22.6666 9.83325 22.6333 9.99992 22.6333 9.99992Z" fill="#1C47E0"/>
<path d="M15.3333 20.3366L13.0493 22.586C13.0493 22.586 12.9499 22.6626 12.8173 22.666C12.7713 22.6673 12.7219 22.66 12.6713 22.6373L13.3139 18.6606L15.3333 20.3366Z" fill="#B0BEC5"/>
<path d="M19.9313 12.1306C19.8186 11.9839 19.6106 11.9573 19.464 12.0686L10.6666 17.3333C10.6666 17.3333 12.0706 21.2613 12.2846 21.9413C12.4993 22.6219 12.6713 22.6379 12.6713 22.6379L13.314 18.6613L19.8686 12.5973C20.0153 12.4859 20.0426 12.2773 19.9313 12.1306Z" fill="#CFD8DC"/>
</svg>
