<svg width="476" height="284" viewBox="0 0 476 284" fill="none" xmlns="http://www.w3.org/2000/svg">
<path d="M96 34C96 24.0589 104.059 16 114 16V16C123.941 16 132 24.0589 132 34V38H96V34Z" fill="#FF4500"/>
<path d="M440 266C440 256.059 448.059 248 458 248C467.941 248 476 256.059 476 266V270H440V266Z" fill="#FF4500"/>
<ellipse cx="114" cy="6.5" rx="7" ry="6.5" fill="#FF4500"/>
<ellipse cx="458" cy="238.5" rx="7" ry="6.5" fill="#FF4500"/>
<rect y="49" width="314" height="72" rx="28" fill="#74270B"/>
<rect x="140" y="153" width="314" height="72" rx="28" fill="#74270B"/>
<path d="M226 139H364L324 103" stroke="black" stroke-width="5"/>
<path d="M300 246L162 246L202 282" stroke="black" stroke-width="5"/>
<path d="M30.088 32.288C28.952 32.288 27.904 32.08 26.944 31.664C26 31.232 25.224 30.624 24.616 29.84L26.776 27.248C27.688 28.48 28.728 29.096 29.896 29.096C31.48 29.096 32.272 28.168 32.272 26.312V18.32H26.368V15.2H36.136V26.096C36.136 28.16 35.624 29.712 34.6 30.752C33.576 31.776 32.072 32.288 30.088 32.288ZM45.8564 32.192C44.4964 32.192 43.2724 31.912 42.1844 31.352C41.1124 30.776 40.2724 29.984 39.6644 28.976C39.0564 27.968 38.7524 26.824 38.7524 25.544C38.7524 24.264 39.0564 23.12 39.6644 22.112C40.2724 21.104 41.1124 20.32 42.1844 19.76C43.2724 19.184 44.4964 18.896 45.8564 18.896C47.2164 18.896 48.4324 19.184 49.5044 19.76C50.5764 20.32 51.4164 21.104 52.0244 22.112C52.6324 23.12 52.9364 24.264 52.9364 25.544C52.9364 26.824 52.6324 27.968 52.0244 28.976C51.4164 29.984 50.5764 30.776 49.5044 31.352C48.4324 31.912 47.2164 32.192 45.8564 32.192ZM45.8564 29.12C46.8164 29.12 47.6004 28.8 48.2084 28.16C48.8324 27.504 49.1444 26.632 49.1444 25.544C49.1444 24.456 48.8324 23.592 48.2084 22.952C47.6004 22.296 46.8164 21.968 45.8564 21.968C44.8964 21.968 44.1044 22.296 43.4804 22.952C42.8564 23.592 42.5444 24.456 42.5444 25.544C42.5444 26.632 42.8564 27.504 43.4804 28.16C44.1044 28.8 44.8964 29.12 45.8564 29.12ZM63.2869 18.896C64.8869 18.896 66.1749 19.376 67.1509 20.336C68.1429 21.296 68.6389 22.72 68.6389 24.608V32H64.8949V25.184C64.8949 24.16 64.6709 23.4 64.2229 22.904C63.7749 22.392 63.1269 22.136 62.2789 22.136C61.3349 22.136 60.5829 22.432 60.0229 23.024C59.4629 23.6 59.1829 24.464 59.1829 25.616V32H55.4389V14.192H59.1829V20.432C59.6789 19.936 60.2789 19.56 60.9829 19.304C61.6869 19.032 62.4549 18.896 63.2869 18.896ZM79.8807 18.896C81.4807 18.896 82.7687 19.376 83.7447 20.336C84.7367 21.296 85.2327 22.72 85.2327 24.608V32H81.4887V25.184C81.4887 24.16 81.2647 23.4 80.8167 22.904C80.3687 22.392 79.7207 22.136 78.8727 22.136C77.9287 22.136 77.1767 22.432 76.6167 23.024C76.0567 23.6 75.7767 24.464 75.7767 25.616V32H72.0327V19.088H75.6087V20.6C76.1047 20.056 76.7207 19.64 77.4567 19.352C78.1927 19.048 79.0007 18.896 79.8807 18.896Z" fill="#FF4500"/>
<path d="M370.28 259L370.256 248.92L365.312 257.224H363.56L358.64 249.136V259H354.992V242.2H358.208L364.496 252.64L370.688 242.2H373.88L373.928 259H370.28ZM382.858 245.896C384.858 245.896 386.394 246.376 387.466 247.336C388.538 248.28 389.074 249.712 389.074 251.632V259H385.57V257.392C384.866 258.592 383.554 259.192 381.634 259.192C380.642 259.192 379.778 259.024 379.042 258.688C378.322 258.352 377.77 257.888 377.386 257.296C377.002 256.704 376.81 256.032 376.81 255.28C376.81 254.08 377.258 253.136 378.154 252.448C379.066 251.76 380.466 251.416 382.354 251.416H385.33C385.33 250.6 385.082 249.976 384.586 249.544C384.09 249.096 383.346 248.872 382.354 248.872C381.666 248.872 380.986 248.984 380.314 249.208C379.658 249.416 379.098 249.704 378.634 250.072L377.29 247.456C377.994 246.96 378.834 246.576 379.81 246.304C380.802 246.032 381.818 245.896 382.858 245.896ZM382.57 256.672C383.21 256.672 383.778 256.528 384.274 256.24C384.77 255.936 385.122 255.496 385.33 254.92V253.6H382.762C381.226 253.6 380.458 254.104 380.458 255.112C380.458 255.592 380.642 255.976 381.01 256.264C381.394 256.536 381.914 256.672 382.57 256.672ZM396.038 247.792C396.486 247.168 397.086 246.696 397.838 246.376C398.606 246.056 399.486 245.896 400.478 245.896V249.352C400.062 249.32 399.782 249.304 399.638 249.304C398.566 249.304 397.726 249.608 397.118 250.216C396.51 250.808 396.206 251.704 396.206 252.904V259H392.462V246.088H396.038V247.792ZM408.249 253.936L406.449 255.712V259H402.705V241.192H406.449V251.272L411.921 246.088H416.385L411.009 251.56L416.865 259H412.329L408.249 253.936Z" fill="#FF4500"/>
<path d="M175.416 80.2V97H171.528V83.32H168.168V80.2H175.416ZM185.534 97.288C184.142 97.288 182.902 96.944 181.814 96.256C180.726 95.568 179.87 94.576 179.246 93.28C178.638 91.968 178.334 90.408 178.334 88.6C178.334 86.792 178.638 85.24 179.246 83.944C179.87 82.632 180.726 81.632 181.814 80.944C182.902 80.256 184.142 79.912 185.534 79.912C186.926 79.912 188.166 80.256 189.254 80.944C190.342 81.632 191.19 82.632 191.798 83.944C192.422 85.24 192.734 86.792 192.734 88.6C192.734 90.408 192.422 91.968 191.798 93.28C191.19 94.576 190.342 95.568 189.254 96.256C188.166 96.944 186.926 97.288 185.534 97.288ZM185.534 94C186.558 94 187.358 93.56 187.934 92.68C188.526 91.8 188.822 90.44 188.822 88.6C188.822 86.76 188.526 85.4 187.934 84.52C187.358 83.64 186.558 83.2 185.534 83.2C184.526 83.2 183.726 83.64 183.134 84.52C182.558 85.4 182.27 86.76 182.27 88.6C182.27 90.44 182.558 91.8 183.134 92.68C183.726 93.56 184.526 94 185.534 94ZM201.824 97.288C200.432 97.288 199.192 96.944 198.104 96.256C197.016 95.568 196.16 94.576 195.536 93.28C194.928 91.968 194.624 90.408 194.624 88.6C194.624 86.792 194.928 85.24 195.536 83.944C196.16 82.632 197.016 81.632 198.104 80.944C199.192 80.256 200.432 79.912 201.824 79.912C203.216 79.912 204.456 80.256 205.544 80.944C206.632 81.632 207.48 82.632 208.088 83.944C208.712 85.24 209.024 86.792 209.024 88.6C209.024 90.408 208.712 91.968 208.088 93.28C207.48 94.576 206.632 95.568 205.544 96.256C204.456 96.944 203.216 97.288 201.824 97.288ZM201.824 94C202.848 94 203.648 93.56 204.224 92.68C204.816 91.8 205.112 90.44 205.112 88.6C205.112 86.76 204.816 85.4 204.224 84.52C203.648 83.64 202.848 83.2 201.824 83.2C200.816 83.2 200.016 83.64 199.424 84.52C198.848 85.4 198.56 86.76 198.56 88.6C198.56 90.44 198.848 91.8 199.424 92.68C200.016 93.56 200.816 94 201.824 94ZM212.84 92.536C213.512 92.536 214.064 92.752 214.496 93.184C214.928 93.6 215.144 94.152 215.144 94.84C215.144 95.16 215.104 95.48 215.024 95.8C214.944 96.12 214.768 96.6 214.496 97.24L213.128 100.696H210.752L211.808 96.88C211.408 96.72 211.088 96.464 210.848 96.112C210.624 95.744 210.512 95.32 210.512 94.84C210.512 94.152 210.728 93.6 211.16 93.184C211.608 92.752 212.168 92.536 212.84 92.536ZM223.784 97.288C222.392 97.288 221.152 96.944 220.064 96.256C218.976 95.568 218.12 94.576 217.496 93.28C216.888 91.968 216.584 90.408 216.584 88.6C216.584 86.792 216.888 85.24 217.496 83.944C218.12 82.632 218.976 81.632 220.064 80.944C221.152 80.256 222.392 79.912 223.784 79.912C225.176 79.912 226.416 80.256 227.504 80.944C228.592 81.632 229.44 82.632 230.048 83.944C230.672 85.24 230.984 86.792 230.984 88.6C230.984 90.408 230.672 91.968 230.048 93.28C229.44 94.576 228.592 95.568 227.504 96.256C226.416 96.944 225.176 97.288 223.784 97.288ZM223.784 94C224.808 94 225.608 93.56 226.184 92.68C226.776 91.8 227.072 90.44 227.072 88.6C227.072 86.76 226.776 85.4 226.184 84.52C225.608 83.64 224.808 83.2 223.784 83.2C222.776 83.2 221.976 83.64 221.384 84.52C220.808 85.4 220.52 86.76 220.52 88.6C220.52 90.44 220.808 91.8 221.384 92.68C221.976 93.56 222.776 94 223.784 94ZM240.074 97.288C238.682 97.288 237.442 96.944 236.354 96.256C235.266 95.568 234.41 94.576 233.786 93.28C233.178 91.968 232.874 90.408 232.874 88.6C232.874 86.792 233.178 85.24 233.786 83.944C234.41 82.632 235.266 81.632 236.354 80.944C237.442 80.256 238.682 79.912 240.074 79.912C241.466 79.912 242.706 80.256 243.794 80.944C244.882 81.632 245.73 82.632 246.338 83.944C246.962 85.24 247.274 86.792 247.274 88.6C247.274 90.408 246.962 91.968 246.338 93.28C245.73 94.576 244.882 95.568 243.794 96.256C242.706 96.944 241.466 97.288 240.074 97.288ZM240.074 94C241.098 94 241.898 93.56 242.474 92.68C243.066 91.8 243.362 90.44 243.362 88.6C243.362 86.76 243.066 85.4 242.474 84.52C241.898 83.64 241.098 83.2 240.074 83.2C239.066 83.2 238.266 83.64 237.674 84.52C237.098 85.4 236.81 86.76 236.81 88.6C236.81 90.44 237.098 91.8 237.674 92.68C238.266 93.56 239.066 94 240.074 94ZM256.363 97.288C254.971 97.288 253.731 96.944 252.643 96.256C251.555 95.568 250.699 94.576 250.075 93.28C249.467 91.968 249.163 90.408 249.163 88.6C249.163 86.792 249.467 85.24 250.075 83.944C250.699 82.632 251.555 81.632 252.643 80.944C253.731 80.256 254.971 79.912 256.363 79.912C257.755 79.912 258.995 80.256 260.083 80.944C261.171 81.632 262.019 82.632 262.627 83.944C263.251 85.24 263.563 86.792 263.563 88.6C263.563 90.408 263.251 91.968 262.627 93.28C262.019 94.576 261.171 95.568 260.083 96.256C258.995 96.944 257.755 97.288 256.363 97.288ZM256.363 94C257.387 94 258.187 93.56 258.763 92.68C259.355 91.8 259.651 90.44 259.651 88.6C259.651 86.76 259.355 85.4 258.763 84.52C258.187 83.64 257.387 83.2 256.363 83.2C255.355 83.2 254.555 83.64 253.963 84.52C253.387 85.4 253.099 86.76 253.099 88.6C253.099 90.44 253.387 91.8 253.963 92.68C254.555 93.56 255.355 94 256.363 94Z" fill="white"/>
<path d="M335.416 183.2V200H331.528V186.32H328.168V183.2H335.416ZM345.534 200.288C344.142 200.288 342.902 199.944 341.814 199.256C340.726 198.568 339.87 197.576 339.246 196.28C338.638 194.968 338.334 193.408 338.334 191.6C338.334 189.792 338.638 188.24 339.246 186.944C339.87 185.632 340.726 184.632 341.814 183.944C342.902 183.256 344.142 182.912 345.534 182.912C346.926 182.912 348.166 183.256 349.254 183.944C350.342 184.632 351.19 185.632 351.798 186.944C352.422 188.24 352.734 189.792 352.734 191.6C352.734 193.408 352.422 194.968 351.798 196.28C351.19 197.576 350.342 198.568 349.254 199.256C348.166 199.944 346.926 200.288 345.534 200.288ZM345.534 197C346.558 197 347.358 196.56 347.934 195.68C348.526 194.8 348.822 193.44 348.822 191.6C348.822 189.76 348.526 188.4 347.934 187.52C347.358 186.64 346.558 186.2 345.534 186.2C344.526 186.2 343.726 186.64 343.134 187.52C342.558 188.4 342.27 189.76 342.27 191.6C342.27 193.44 342.558 194.8 343.134 195.68C343.726 196.56 344.526 197 345.534 197ZM361.824 200.288C360.432 200.288 359.192 199.944 358.104 199.256C357.016 198.568 356.16 197.576 355.536 196.28C354.928 194.968 354.624 193.408 354.624 191.6C354.624 189.792 354.928 188.24 355.536 186.944C356.16 185.632 357.016 184.632 358.104 183.944C359.192 183.256 360.432 182.912 361.824 182.912C363.216 182.912 364.456 183.256 365.544 183.944C366.632 184.632 367.48 185.632 368.088 186.944C368.712 188.24 369.024 189.792 369.024 191.6C369.024 193.408 368.712 194.968 368.088 196.28C367.48 197.576 366.632 198.568 365.544 199.256C364.456 199.944 363.216 200.288 361.824 200.288ZM361.824 197C362.848 197 363.648 196.56 364.224 195.68C364.816 194.8 365.112 193.44 365.112 191.6C365.112 189.76 364.816 188.4 364.224 187.52C363.648 186.64 362.848 186.2 361.824 186.2C360.816 186.2 360.016 186.64 359.424 187.52C358.848 188.4 358.56 189.76 358.56 191.6C358.56 193.44 358.848 194.8 359.424 195.68C360.016 196.56 360.816 197 361.824 197ZM372.84 195.536C373.512 195.536 374.064 195.752 374.496 196.184C374.928 196.6 375.144 197.152 375.144 197.84C375.144 198.16 375.104 198.48 375.024 198.8C374.944 199.12 374.768 199.6 374.496 200.24L373.128 203.696H370.752L371.808 199.88C371.408 199.72 371.088 199.464 370.848 199.112C370.624 198.744 370.512 198.32 370.512 197.84C370.512 197.152 370.728 196.6 371.16 196.184C371.608 195.752 372.168 195.536 372.84 195.536ZM383.784 200.288C382.392 200.288 381.152 199.944 380.064 199.256C378.976 198.568 378.12 197.576 377.496 196.28C376.888 194.968 376.584 193.408 376.584 191.6C376.584 189.792 376.888 188.24 377.496 186.944C378.12 185.632 378.976 184.632 380.064 183.944C381.152 183.256 382.392 182.912 383.784 182.912C385.176 182.912 386.416 183.256 387.504 183.944C388.592 184.632 389.44 185.632 390.048 186.944C390.672 188.24 390.984 189.792 390.984 191.6C390.984 193.408 390.672 194.968 390.048 196.28C389.44 197.576 388.592 198.568 387.504 199.256C386.416 199.944 385.176 200.288 383.784 200.288ZM383.784 197C384.808 197 385.608 196.56 386.184 195.68C386.776 194.8 387.072 193.44 387.072 191.6C387.072 189.76 386.776 188.4 386.184 187.52C385.608 186.64 384.808 186.2 383.784 186.2C382.776 186.2 381.976 186.64 381.384 187.52C380.808 188.4 380.52 189.76 380.52 191.6C380.52 193.44 380.808 194.8 381.384 195.68C381.976 196.56 382.776 197 383.784 197ZM400.074 200.288C398.682 200.288 397.442 199.944 396.354 199.256C395.266 198.568 394.41 197.576 393.786 196.28C393.178 194.968 392.874 193.408 392.874 191.6C392.874 189.792 393.178 188.24 393.786 186.944C394.41 185.632 395.266 184.632 396.354 183.944C397.442 183.256 398.682 182.912 400.074 182.912C401.466 182.912 402.706 183.256 403.794 183.944C404.882 184.632 405.73 185.632 406.338 186.944C406.962 188.24 407.274 189.792 407.274 191.6C407.274 193.408 406.962 194.968 406.338 196.28C405.73 197.576 404.882 198.568 403.794 199.256C402.706 199.944 401.466 200.288 400.074 200.288ZM400.074 197C401.098 197 401.898 196.56 402.474 195.68C403.066 194.8 403.362 193.44 403.362 191.6C403.362 189.76 403.066 188.4 402.474 187.52C401.898 186.64 401.098 186.2 400.074 186.2C399.066 186.2 398.266 186.64 397.674 187.52C397.098 188.4 396.81 189.76 396.81 191.6C396.81 193.44 397.098 194.8 397.674 195.68C398.266 196.56 399.066 197 400.074 197ZM416.363 200.288C414.971 200.288 413.731 199.944 412.643 199.256C411.555 198.568 410.699 197.576 410.075 196.28C409.467 194.968 409.163 193.408 409.163 191.6C409.163 189.792 409.467 188.24 410.075 186.944C410.699 185.632 411.555 184.632 412.643 183.944C413.731 183.256 414.971 182.912 416.363 182.912C417.755 182.912 418.995 183.256 420.083 183.944C421.171 184.632 422.019 185.632 422.627 186.944C423.251 188.24 423.563 189.792 423.563 191.6C423.563 193.408 423.251 194.968 422.627 196.28C422.019 197.576 421.171 198.568 420.083 199.256C418.995 199.944 417.755 200.288 416.363 200.288ZM416.363 197C417.387 197 418.187 196.56 418.763 195.68C419.355 194.8 419.651 193.44 419.651 191.6C419.651 189.76 419.355 188.4 418.763 187.52C418.187 186.64 417.387 186.2 416.363 186.2C415.355 186.2 414.555 186.64 413.963 187.52C413.387 188.4 413.099 189.76 413.099 191.6C413.099 193.44 413.387 194.8 413.963 195.68C414.555 196.56 415.355 197 416.363 197Z" fill="white"/>
<path d="M89.512 97.288C88.184 97.288 86.896 97.112 85.648 96.76C84.416 96.392 83.424 95.92 82.672 95.344L83.992 92.416C84.712 92.944 85.568 93.368 86.56 93.688C87.552 94.008 88.544 94.168 89.536 94.168C90.64 94.168 91.456 94.008 91.984 93.688C92.512 93.352 92.776 92.912 92.776 92.368C92.776 91.968 92.616 91.64 92.296 91.384C91.992 91.112 91.592 90.896 91.096 90.736C90.616 90.576 89.96 90.4 89.128 90.208C87.848 89.904 86.8 89.6 85.984 89.296C85.168 88.992 84.464 88.504 83.872 87.832C83.296 87.16 83.008 86.264 83.008 85.144C83.008 84.168 83.272 83.288 83.8 82.504C84.328 81.704 85.12 81.072 86.176 80.608C87.248 80.144 88.552 79.912 90.088 79.912C91.16 79.912 92.208 80.04 93.232 80.296C94.256 80.552 95.152 80.92 95.92 81.4L94.72 84.352C93.168 83.472 91.616 83.032 90.064 83.032C88.976 83.032 88.168 83.208 87.64 83.56C87.128 83.912 86.872 84.376 86.872 84.952C86.872 85.528 87.168 85.96 87.76 86.248C88.368 86.52 89.288 86.792 90.52 87.064C91.8 87.368 92.848 87.672 93.664 87.976C94.48 88.28 95.176 88.76 95.752 89.416C96.344 90.072 96.64 90.96 96.64 92.08C96.64 93.04 96.368 93.92 95.824 94.72C95.296 95.504 94.496 96.128 93.424 96.592C92.352 97.056 91.048 97.288 89.512 97.288ZM111.681 90.592C111.681 90.64 111.657 90.976 111.609 91.6H101.841C102.017 92.4 102.433 93.032 103.089 93.496C103.745 93.96 104.561 94.192 105.537 94.192C106.209 94.192 106.801 94.096 107.313 93.904C107.841 93.696 108.329 93.376 108.777 92.944L110.769 95.104C109.553 96.496 107.777 97.192 105.441 97.192C103.985 97.192 102.697 96.912 101.577 96.352C100.457 95.776 99.5927 94.984 98.9847 93.976C98.3767 92.968 98.0727 91.824 98.0727 90.544C98.0727 89.28 98.3687 88.144 98.9607 87.136C99.5687 86.112 100.393 85.32 101.433 84.76C102.489 84.184 103.665 83.896 104.961 83.896C106.225 83.896 107.369 84.168 108.393 84.712C109.417 85.256 110.217 86.04 110.793 87.064C111.385 88.072 111.681 89.248 111.681 90.592ZM104.985 86.728C104.137 86.728 103.425 86.968 102.849 87.448C102.273 87.928 101.921 88.584 101.793 89.416H108.153C108.025 88.6 107.673 87.952 107.097 87.472C106.521 86.976 105.817 86.728 104.985 86.728ZM122.021 83.896C123.621 83.896 124.909 84.376 125.885 85.336C126.877 86.296 127.373 87.72 127.373 89.608V97H123.629V90.184C123.629 89.16 123.405 88.4 122.957 87.904C122.509 87.392 121.861 87.136 121.013 87.136C120.069 87.136 119.317 87.432 118.757 88.024C118.197 88.6 117.917 89.464 117.917 90.616V97H114.173V84.088H117.749V85.6C118.245 85.056 118.861 84.64 119.597 84.352C120.333 84.048 121.141 83.896 122.021 83.896ZM139.095 96.376C138.727 96.648 138.271 96.856 137.727 97C137.199 97.128 136.639 97.192 136.047 97.192C134.511 97.192 133.319 96.8 132.471 96.016C131.639 95.232 131.223 94.08 131.223 92.56V87.256H129.231V84.376H131.223V81.232H134.967V84.376H138.183V87.256H134.967V92.512C134.967 93.056 135.103 93.48 135.375 93.784C135.663 94.072 136.063 94.216 136.575 94.216C137.167 94.216 137.671 94.056 138.087 93.736L139.095 96.376Z" fill="white"/>
<path d="M192.696 200L189.456 195.32H189.264H185.88V200H181.992V183.2H189.264C190.752 183.2 192.04 183.448 193.128 183.944C194.232 184.44 195.08 185.144 195.672 186.056C196.264 186.968 196.56 188.048 196.56 189.296C196.56 190.544 196.256 191.624 195.648 192.536C195.056 193.432 194.208 194.12 193.104 194.6L196.872 200H192.696ZM192.624 189.296C192.624 188.352 192.32 187.632 191.712 187.136C191.104 186.624 190.216 186.368 189.048 186.368H185.88V192.224H189.048C190.216 192.224 191.104 191.968 191.712 191.456C192.32 190.944 192.624 190.224 192.624 189.296ZM212.024 193.592C212.024 193.64 212 193.976 211.952 194.6H202.184C202.36 195.4 202.776 196.032 203.432 196.496C204.088 196.96 204.904 197.192 205.88 197.192C206.552 197.192 207.144 197.096 207.656 196.904C208.184 196.696 208.672 196.376 209.12 195.944L211.112 198.104C209.896 199.496 208.12 200.192 205.784 200.192C204.328 200.192 203.04 199.912 201.92 199.352C200.8 198.776 199.936 197.984 199.328 196.976C198.72 195.968 198.416 194.824 198.416 193.544C198.416 192.28 198.712 191.144 199.304 190.136C199.912 189.112 200.736 188.32 201.776 187.76C202.832 187.184 204.008 186.896 205.304 186.896C206.568 186.896 207.712 187.168 208.736 187.712C209.76 188.256 210.56 189.04 211.136 190.064C211.728 191.072 212.024 192.248 212.024 193.592ZM205.328 189.728C204.48 189.728 203.768 189.968 203.192 190.448C202.616 190.928 202.264 191.584 202.136 192.416H208.496C208.368 191.6 208.016 190.952 207.44 190.472C206.864 189.976 206.16 189.728 205.328 189.728ZM220.757 200.192C219.381 200.192 218.141 199.912 217.037 199.352C215.949 198.776 215.093 197.984 214.469 196.976C213.861 195.968 213.557 194.824 213.557 193.544C213.557 192.264 213.861 191.12 214.469 190.112C215.093 189.104 215.949 188.32 217.037 187.76C218.141 187.184 219.381 186.896 220.757 186.896C222.117 186.896 223.301 187.184 224.309 187.76C225.333 188.32 226.077 189.128 226.541 190.184L223.637 191.744C222.965 190.56 221.997 189.968 220.733 189.968C219.757 189.968 218.949 190.288 218.309 190.928C217.669 191.568 217.349 192.44 217.349 193.544C217.349 194.648 217.669 195.52 218.309 196.16C218.949 196.8 219.757 197.12 220.733 197.12C222.013 197.12 222.981 196.528 223.637 195.344L226.541 196.928C226.077 197.952 225.333 198.752 224.309 199.328C223.301 199.904 222.117 200.192 220.757 200.192ZM228.697 187.088H232.441V200H228.697V187.088ZM230.569 185.288C229.881 185.288 229.321 185.088 228.889 184.688C228.457 184.288 228.241 183.792 228.241 183.2C228.241 182.608 228.457 182.112 228.889 181.712C229.321 181.312 229.881 181.112 230.569 181.112C231.257 181.112 231.817 181.304 232.249 181.688C232.681 182.072 232.897 182.552 232.897 183.128C232.897 183.752 232.681 184.272 232.249 184.688C231.817 185.088 231.257 185.288 230.569 185.288ZM248.564 193.592C248.564 193.64 248.54 193.976 248.492 194.6H238.724C238.9 195.4 239.316 196.032 239.972 196.496C240.628 196.96 241.444 197.192 242.42 197.192C243.092 197.192 243.684 197.096 244.196 196.904C244.724 196.696 245.212 196.376 245.66 195.944L247.652 198.104C246.436 199.496 244.66 200.192 242.324 200.192C240.868 200.192 239.58 199.912 238.46 199.352C237.34 198.776 236.476 197.984 235.868 196.976C235.26 195.968 234.956 194.824 234.956 193.544C234.956 192.28 235.252 191.144 235.844 190.136C236.452 189.112 237.276 188.32 238.316 187.76C239.372 187.184 240.548 186.896 241.844 186.896C243.108 186.896 244.252 187.168 245.276 187.712C246.3 188.256 247.1 189.04 247.676 190.064C248.268 191.072 248.564 192.248 248.564 193.592ZM241.868 189.728C241.02 189.728 240.308 189.968 239.732 190.448C239.156 190.928 238.804 191.584 238.676 192.416H245.036C244.908 191.6 244.556 190.952 243.98 190.472C243.404 189.976 242.7 189.728 241.868 189.728ZM263.638 187.088L258.19 200H254.326L248.902 187.088H252.766L256.342 195.872L260.038 187.088H263.638ZM277.462 193.592C277.462 193.64 277.438 193.976 277.39 194.6H267.622C267.798 195.4 268.214 196.032 268.87 196.496C269.526 196.96 270.342 197.192 271.318 197.192C271.99 197.192 272.582 197.096 273.094 196.904C273.622 196.696 274.11 196.376 274.558 195.944L276.55 198.104C275.334 199.496 273.558 200.192 271.222 200.192C269.766 200.192 268.478 199.912 267.358 199.352C266.238 198.776 265.374 197.984 264.766 196.976C264.158 195.968 263.854 194.824 263.854 193.544C263.854 192.28 264.15 191.144 264.742 190.136C265.35 189.112 266.174 188.32 267.214 187.76C268.27 187.184 269.446 186.896 270.742 186.896C272.006 186.896 273.15 187.168 274.174 187.712C275.198 188.256 275.998 189.04 276.574 190.064C277.166 191.072 277.462 192.248 277.462 193.592ZM270.766 189.728C269.918 189.728 269.206 189.968 268.63 190.448C268.054 190.928 267.702 191.584 267.574 192.416H273.934C273.806 191.6 273.454 190.952 272.878 190.472C272.302 189.976 271.598 189.728 270.766 189.728ZM293.107 182.192V200H289.531V198.512C288.603 199.632 287.259 200.192 285.499 200.192C284.283 200.192 283.179 199.92 282.187 199.376C281.211 198.832 280.443 198.056 279.883 197.048C279.323 196.04 279.043 194.872 279.043 193.544C279.043 192.216 279.323 191.048 279.883 190.04C280.443 189.032 281.211 188.256 282.187 187.712C283.179 187.168 284.283 186.896 285.499 186.896C287.147 186.896 288.435 187.416 289.363 188.456V182.192H293.107ZM286.147 197.12C287.091 197.12 287.875 196.8 288.499 196.16C289.123 195.504 289.435 194.632 289.435 193.544C289.435 192.456 289.123 191.592 288.499 190.952C287.875 190.296 287.091 189.968 286.147 189.968C285.187 189.968 284.395 190.296 283.771 190.952C283.147 191.592 282.835 192.456 282.835 193.544C282.835 194.632 283.147 195.504 283.771 196.16C284.395 196.8 285.187 197.12 286.147 197.12Z" fill="white"/>
</svg>
