<svg width="26" height="30" viewBox="0 0 26 30" fill="none" xmlns="http://www.w3.org/2000/svg">
<path d="M7.87324 0H1C0.447715 0 0 0.447716 0 1V19.0136C0 19.3298 0.149549 19.6273 0.403286 19.816L13.4486 29.5167C13.8276 29.7985 14.352 29.7768 14.7064 29.4646L25.661 19.8147C25.8765 19.6249 26 19.3516 26 19.0644V1C26 0.447715 25.5523 0 25 0H17.3934C16.9578 0 16.5724 0.281972 16.4404 0.697108L13.3082 10.5523C13.2281 10.8044 13.2511 11.078 13.3722 11.3131L15.8891 16.1997C16.4116 17.2142 15.1001 18.1716 14.293 17.3647L8.37656 11.4492C8.07527 11.1479 7.99793 10.6889 8.18389 10.3056L12.4863 1.43646C12.8084 0.772322 12.3247 0 11.5866 0H7.87324Z" fill="#FF4500"/>
</svg>
