<svg width="53" height="53" viewBox="0 0 53 53" fill="none" xmlns="http://www.w3.org/2000/svg">
<path d="M26.4998 4.41667C20.643 4.41667 15.026 6.7433 10.8846 10.8847C6.74313 15.0262 4.4165 20.6431 4.4165 26.5C4.4165 32.3569 6.74313 37.9738 10.8846 42.1153C15.026 46.2567 20.643 48.5833 26.4998 48.5833C32.3567 48.5833 37.9737 46.2567 42.1151 42.1153C46.2565 37.9738 48.5832 32.3569 48.5832 26.5C48.5832 20.6431 46.2565 15.0262 42.1151 10.8847C37.9737 6.7433 32.3567 4.41667 26.4998 4.41667Z" fill="#29B6F6"/>
<path d="M37.4863 16.5625L33.3501 37.6808C33.3501 37.6808 33.1723 38.6458 31.9754 38.6458C31.3394 38.6458 31.0115 38.3433 31.0115 38.3433L22.0523 30.9089L17.6687 28.6995L12.043 27.2034C12.043 27.2034 11.0415 26.9141 11.0415 26.0859C11.0415 25.3958 12.0717 25.0668 12.0717 25.0668L35.6081 15.7167C35.607 15.7156 36.3269 15.4572 36.8514 15.4583C37.1738 15.4583 37.5415 15.5964 37.5415 16.0104C37.5415 16.2865 37.4863 16.5625 37.4863 16.5625Z" fill="white"/>
<path d="M25.3958 33.6826L21.6129 37.4081C21.6129 37.4081 21.4484 37.535 21.2286 37.5406C21.1524 37.5428 21.0707 37.5306 20.9868 37.4931L22.0512 30.9067L25.3958 33.6826Z" fill="#B0BEC5"/>
<path d="M33.0111 20.0914C32.8245 19.8485 32.48 19.8043 32.2371 19.9887L17.6665 28.7083C17.6665 28.7083 19.9919 35.2141 20.3463 36.3403C20.7019 37.4677 20.9867 37.4942 20.9867 37.4942L22.0511 30.9078L32.9073 20.8643C33.1502 20.6799 33.1955 20.3343 33.0111 20.0914Z" fill="#CFD8DC"/>
</svg>
